<svg xmlns="http://www.w3.org/2000/svg" aria-hidden="true" style="position:absolute;width:0;height:0;overflow:hidden">
  <defs>
    <symbol id="icon-heroicons_menu" viewBox="0 0 32 32">
      <path fill="#e5e5e5" d="M0 0h32v32H0V0z" style="fill:var(--color1, #e5e5e5)"/>
      <path fill="#fff" d="M-373.333-21.333H53.334V9600h-426.667V-21.333z" style="fill:var(--color2, #fff)"/>
      <path fill="#fff" d="M-373.333-21.333H53.334v74.667h-426.667v-74.667z" style="fill:var(--color2, #fff)"/>
      <path fill="#2f2f37" d="M4.799 8.001a1.6 1.6 0 0 1 1.6-1.6h19.2a1.6 1.6 0 0 1 0 3.2h-19.2a1.6 1.6 0 0 1-1.6-1.6zM4.799 16.001a1.6 1.6 0 0 1 1.6-1.6h19.2a1.6 1.6 0 0 1 0 3.2h-19.2a1.6 1.6 0 0 1-1.6-1.6zM4.799 24.001a1.6 1.6 0 0 1 1.6-1.6h19.2a1.6 1.6 0 0 1 0 3.2h-19.2a1.6 1.6 0 0 1-1.6-1.6z" style="fill:var(--color3, #2f2f37)"/>
    </symbol>
  </defs>
</svg>
